<svg width="24" height="24" viewBox="0 0 24 24" fill="none" xmlns="http://www.w3.org/2000/svg">
<rect width="24" height="24" rx="12" fill="white"/>
<path d="M14.9957 14.3587C14.1088 14.3587 13.3776 13.5447 13.3776 12.5445C13.3776 11.5443 14.0941 10.7303 14.9957 10.7303C15.8974 10.7303 16.6276 11.5522 16.6138 12.5445C16.6 13.5369 15.9043 14.3587 14.9957 14.3587ZM9.01412 14.3587C8.12723 14.3587 7.39603 13.5447 7.39603 12.5445C7.39603 11.5443 8.11245 10.7303 9.01412 10.7303C9.9158 10.7303 10.646 11.5522 10.6322 12.5445C10.6184 13.5369 9.91579 14.3587 9.0151 14.3587H9.01412ZM18.2368 6.1372C17.0698 5.60159 15.8383 5.21967 14.573 5.00099C14.5615 4.99871 14.5495 5.00015 14.5389 5.00511C14.5283 5.01008 14.5195 5.0183 14.5138 5.02859C14.3461 5.3331 14.1938 5.64588 14.0576 5.96574C12.6937 5.7586 11.3063 5.7586 9.9424 5.96574C9.80536 5.64507 9.65075 5.33222 9.47925 5.02859C9.47328 5.0186 9.46446 5.01063 9.45392 5.00571C9.44338 5.00079 9.43161 4.99915 9.42012 5.00099C8.15472 5.21921 6.9231 5.60115 5.75627 6.1372C5.74644 6.14151 5.73818 6.14873 5.73261 6.1579C3.3991 9.64437 2.75955 13.0451 3.07193 16.4064C3.07283 16.4147 3.07538 16.4228 3.07945 16.43C3.08351 16.4373 3.089 16.4437 3.09558 16.4488C4.45426 17.4554 5.97408 18.2238 7.59016 18.7212C7.60153 18.7246 7.61367 18.7245 7.62494 18.7208C7.63621 18.7171 7.64609 18.71 7.65323 18.7005C8.00028 18.228 8.30779 17.7277 8.57264 17.2046C8.57617 17.1975 8.57816 17.1896 8.57846 17.1816C8.57876 17.1736 8.57739 17.1657 8.57442 17.1582C8.57144 17.1508 8.56694 17.1441 8.5612 17.1385C8.55547 17.1329 8.54862 17.1286 8.54111 17.1258C8.05609 16.9402 7.58653 16.7165 7.13686 16.4567C7.12818 16.452 7.12084 16.4452 7.11553 16.4368C7.11022 16.4285 7.10713 16.4189 7.10654 16.4091C7.10594 16.3992 7.10788 16.3894 7.11215 16.3805C7.11642 16.3715 7.12289 16.3639 7.13095 16.3582C7.22949 16.2872 7.32015 16.2143 7.40983 16.1394C7.4178 16.1327 7.42748 16.1285 7.43776 16.1271C7.44805 16.1257 7.45852 16.1272 7.46797 16.1315C10.4134 17.4766 13.6033 17.4766 16.5143 16.1315C16.5238 16.1269 16.5344 16.1251 16.5449 16.1263C16.5553 16.1275 16.5652 16.1317 16.5734 16.1384C16.6631 16.2123 16.7577 16.2872 16.8533 16.3572C16.8614 16.3628 16.8679 16.3704 16.8723 16.3793C16.8766 16.3881 16.8786 16.398 16.8782 16.4078C16.8777 16.4177 16.8747 16.4272 16.8694 16.4356C16.8642 16.444 16.857 16.4509 16.8483 16.4557C16.4014 16.7163 15.9333 16.9388 15.449 17.1209C15.4415 17.1237 15.4346 17.1282 15.4289 17.1339C15.4232 17.1396 15.4187 17.1464 15.4158 17.1539C15.4129 17.1615 15.4117 17.1695 15.4121 17.1776C15.4126 17.1857 15.4148 17.1935 15.4185 17.2007C15.6873 17.7211 15.9939 18.2211 16.3359 18.6966C16.3428 18.7064 16.3527 18.7137 16.364 18.7176C16.3753 18.7215 16.3875 18.7217 16.399 18.7183C18.0178 18.2224 19.5402 17.4539 20.9005 16.4459C20.9071 16.441 20.9127 16.4348 20.9167 16.4277C20.9208 16.4206 20.9233 16.4127 20.9241 16.4045C21.2996 12.5218 20.2954 9.1487 18.2634 6.15593C18.2574 6.14686 18.2483 6.14023 18.2378 6.1372H18.2368Z" fill="#202122"/>
</svg>
