<svg width="24" height="24" viewBox="0 0 24 24" fill="none" xmlns="http://www.w3.org/2000/svg">
<path d="M20 6.99956C19.4113 7.25414 18.7787 7.42559 18.1147 7.50287C18.7927 7.10736 19.3133 6.48065 19.558 5.7338C18.924 6.10008 18.2213 6.36635 17.4733 6.50988C16.8753 5.88836 16.0213 5.5 15.0773 5.5C12.958 5.5 11.4007 7.42624 11.8793 9.42586C9.152 9.29273 6.73333 8.01982 5.114 6.08514C4.254 7.52235 4.668 9.40248 6.12933 10.3546C5.592 10.3377 5.08533 10.1941 4.64333 9.9545C4.60733 11.4359 5.69733 12.8218 7.276 13.1303C6.814 13.2524 6.308 13.2809 5.79333 13.1848C6.21067 14.4551 7.42267 15.3793 8.86 15.4052C7.48 16.4593 5.74133 16.9301 4 16.7301C5.45267 17.6374 7.17867 18.1667 9.032 18.1667C15.1267 18.1667 18.57 13.1523 18.362 8.65498C19.0033 8.20362 19.56 7.64055 20 6.99956Z" fill="#ECECEC"/>
</svg>
